<?xml version="1.0" encoding="UTF-8" standalone="no"?>
<!DOCTYPE svg PUBLIC "-//W3C//DTD SVG 1.1//EN"
        "http://www.w3.org/Graphics/SVG/1.1/DTD/svg11.dtd">
<!-- Generated by graphviz version 2.30.1 (20150306.0020)
 -->
<!-- Title: %3 Pages: 1 -->
<svg width="351pt" height="332pt"
     viewBox="0.00 0.00 351.00 332.00" xmlns="http://www.w3.org/2000/svg" xmlns:xlink="http://www.w3.org/1999/xlink">
    <g id="graph0" class="graph" transform="scale(1 1) rotate(0) translate(4 328)">
        <title>%3</title>
        <polygon fill="white" stroke="white" points="-4,5 -4,-328 348,-328 348,5 -4,5"/>
        <!-- 1 -->
        <g id="node1" class="node">
            <title>1</title>
            <ellipse fill="none" stroke="black" cx="253" cy="-234" rx="90.0136" ry="18"/>
            <text text-anchor="middle" x="253" y="-230.3" font-family="Times,serif" font-size="14.00">open(0x400b60)&#45;&gt;0x3</text>
        </g>
        <!-- 2 -->
        <g id="node3" class="node">
            <title>2</title>
            <ellipse fill="none" stroke="black" cx="268" cy="-162" rx="69.3156" ry="18"/>
            <text text-anchor="middle" x="268" y="-158.3" font-family="Times,serif" font-size="14.00">write(0x3)&#45;&gt;0x2</text>
        </g>
        <!-- 1&#45;&gt;2 -->
        <g id="edge3" class="edge">
            <title>1&#45;&gt;2</title>
            <path fill="none" stroke="black" d="M256.708,-215.697C258.361,-207.983 260.347,-198.712 262.19,-190.112"/>
            <polygon fill="black" stroke="black"
                     points="265.662,-190.616 264.335,-180.104 258.817,-189.149 265.662,-190.616"/>
        </g>
        <!-- 5 -->
        <g id="node2" class="node">
            <title>5</title>
            <ellipse fill="none" stroke="black" cx="90" cy="-162" rx="90.0136" ry="18"/>
            <text text-anchor="middle" x="90" y="-158.3" font-family="Times,serif" font-size="14.00">open(0x400b70)&#45;&gt;0x4</text>
        </g>
        <!-- 6 -->
        <g id="node6" class="node">
            <title>6</title>
            <ellipse fill="none" stroke="black" cx="109" cy="-90" rx="60.1672" ry="18"/>
            <text text-anchor="middle" x="109" y="-86.3" font-family="Times,serif" font-size="14.00">close(0x4)&#45;&gt;0</text>
        </g>
        <!-- 5&#45;&gt;6 -->
        <g id="edge7" class="edge">
            <title>5&#45;&gt;6</title>
            <path fill="none" stroke="black" d="M94.6966,-143.697C96.8134,-135.898 99.362,-126.509 101.718,-117.829"/>
            <polygon fill="black" stroke="black"
                     points="105.116,-118.672 104.357,-108.104 98.36,-116.838 105.116,-118.672"/>
        </g>
        <!-- 3 -->
        <g id="node5" class="node">
            <title>3</title>
            <ellipse fill="none" stroke="black" cx="258" cy="-90" rx="60.1672" ry="18"/>
            <text text-anchor="middle" x="258" y="-86.3" font-family="Times,serif" font-size="14.00">close(0x3)&#45;&gt;0</text>
        </g>
        <!-- 2&#45;&gt;3 -->
        <g id="edge2" class="edge">
            <title>2&#45;&gt;3</title>
            <path fill="none" stroke="black" d="M265.528,-143.697C264.426,-135.983 263.102,-126.712 261.873,-118.112"/>
            <polygon fill="black" stroke="black"
                     points="265.323,-117.509 260.443,-108.104 258.393,-118.499 265.323,-117.509"/>
        </g>
        <!-- 4 -->
        <g id="node4" class="node">
            <title>4</title>
            <ellipse fill="none" stroke="black" cx="183" cy="-18" rx="34.1708" ry="18"/>
            <text text-anchor="middle" x="183" y="-14.3" font-family="Times,serif" font-size="14.00">exit(0)</text>
        </g>
        <!-- 3&#45;&gt;4 -->
        <g id="edge1" class="edge">
            <title>3&#45;&gt;4</title>
            <path fill="none" stroke="black" d="M240.605,-72.7646C230.507,-63.3397 217.647,-51.3373 206.641,-41.0649"/>
            <polygon fill="black" stroke="black"
                     points="208.719,-38.2169 199.02,-33.9523 203.943,-43.3343 208.719,-38.2169"/>
        </g>
        <!-- 6&#45;&gt;4 -->
        <g id="edge6" class="edge">
            <title>6&#45;&gt;4</title>
            <path fill="none" stroke="black" d="M126.537,-72.411C136.442,-63.0414 148.948,-51.211 159.672,-41.0672"/>
            <polygon fill="black" stroke="black"
                     points="162.243,-43.4529 167.102,-34.0382 157.433,-38.3676 162.243,-43.4529"/>
        </g>
        <!-- 0 -->
        <g id="node7" class="node">
            <title>0</title>
            <ellipse fill="none" stroke="black" cx="164" cy="-306" rx="27" ry="18"/>
            <text text-anchor="middle" x="164" y="-302.3" font-family="Times,serif" font-size="14.00">start</text>
        </g>
        <!-- 0&#45;&gt;5 -->
        <g id="edge4" class="edge">
            <title>0&#45;&gt;5</title>
            <path fill="none" stroke="black" d="M155.511,-288.711C142.823,-264.363 118.785,-218.236 103.621,-189.138"/>
            <polygon fill="black" stroke="black"
                     points="106.573,-187.229 98.848,-179.979 100.366,-190.464 106.573,-187.229"/>
        </g>
        <!-- 0&#45;&gt;1 -->
        <g id="edge5" class="edge">
            <title>0&#45;&gt;1</title>
            <path fill="none" stroke="black" d="M180.74,-291.834C192.863,-282.299 209.562,-269.165 223.853,-257.925"/>
            <polygon fill="black" stroke="black"
                     points="226.24,-260.5 231.936,-251.567 221.913,-254.998 226.24,-260.5"/>
        </g>
    </g>
</svg>
